<?xml version="1.0" standalone="no"?><!DOCTYPE svg PUBLIC "-//W3C//DTD SVG 1.1//EN" "http://www.w3.org/Graphics/SVG/1.1/DTD/svg11.dtd"><svg t="1499741016334" class="icon" style="" viewBox="0 0 1024 1024" version="1.1" xmlns="http://www.w3.org/2000/svg" p-id="5674" xmlns:xlink="http://www.w3.org/1999/xlink" width="48" height="48"><defs><style type="text/css"></style></defs><path d="M390.508216 147.524648c-104.135524 0-208.271049 26.033881-208.271049 104.135524s-138.848044 121.490767-138.848043 208.271049S208.271049 624.813146 208.271049 668.202269s-78.101643 26.033881-78.101644 104.135525 121.490767 104.135524 173.55853 104.135524H702.914789c69.425039 0 121.490767-43.389124 121.490767-104.135524s-69.423005-60.7464-69.423005-104.135525 234.30493-86.780282 234.30493-208.271048c0-138.848044-156.203286-312.406573-286.372692-312.406573H390.508216z" fill="#ECF4F7" p-id="5675"></path><path d="M737.627308 885.151956H286.372692c-5.206776 0-8.678638-3.471862-8.678639-8.678638 0-5.206776 3.471862-8.678638 8.678639-8.678638h451.254616c5.206776 0 8.678638 3.471862 8.678639 8.678638-0.002034 5.206776-3.471862 8.678638-8.678639 8.678638z m104.135525-104.135524H494.64374c-5.206776 0-8.678638-3.471862-8.678638-8.678638 0-5.206776 3.471862-8.678638 8.678638-8.678639h347.119093c5.206776 0 8.678638 3.471862 8.678638 8.678639-0.002034 5.206776-3.471862 8.678638-8.678638 8.678638z m-416.542098 0h-312.406572c-5.206776 0-8.678638-3.471862-8.678639-8.678638 0-5.206776 3.471862-8.678638 8.678639-8.678639h312.406572c5.206776 0 8.678638 3.471862 8.678639 8.678639-0.002034 5.206776-3.471862 8.678638-8.678639 8.678638z m347.117059-104.135524H390.508216c-5.206776 0-8.678638-3.471862-8.678638-8.678639 0-5.206776 3.471862-8.678638 8.678638-8.678638h381.829578c5.206776 0 8.678638 3.471862 8.678638 8.678638 0 5.206776-3.471862 8.678638-8.678638 8.678639z m-451.252583 0H182.237167c-5.206776 0-8.678638-3.471862-8.678638-8.678639 0-5.206776 3.471862-8.678638 8.678638-8.678638h138.848044c5.206776 0 8.678638 3.471862 8.678638 8.678638-0.002034 5.206776-3.471862 8.678638-8.678638 8.678639z m624.813146-104.135524H564.066745c-5.206776 0-8.678638-3.471862-8.678638-8.678639s3.471862-8.678638 8.678638-8.678638h381.829578c5.206776 0 8.678638 3.471862 8.678638 8.678638s-3.469828 8.678638-8.676604 8.678639z m-451.254617 0H112.814163c-5.206776 0-8.678638-3.471862-8.678639-8.678639s3.471862-8.678638 8.678639-8.678638H494.64374c5.206776 0 8.678638 3.471862 8.678639 8.678638s-3.471862 8.678638-8.678639 8.678639z m520.677622-104.135525H286.372692c-5.206776 0-8.678638-3.471862-8.678639-8.678638s3.471862-8.678638 8.678639-8.678638h728.94867c5.206776 0 8.678638 3.471862 8.678638 8.678638s-3.471862 8.678638-8.678638 8.678638z m-798.371675 0H8.678638c-5.206776 0-8.678638-3.471862-8.678638-8.678638s3.471862-8.678638 8.678638-8.678638h208.271049c5.206776 0 8.678638 3.471862 8.678638 8.678638s-3.471862 8.678638-8.678638 8.678638z m624.813146-104.135524H702.914789c-5.206776 0-8.678638-3.471862-8.678638-8.678638 0-5.206776 3.471862-8.678638 8.678638-8.678639h138.848044c5.206776 0 8.678638 3.471862 8.678638 8.678639-0.002034 5.206776-3.471862 8.678638-8.678638 8.678638z m-208.271049 0H78.101643c-5.206776 0-8.678638-3.471862-8.678638-8.678638 0-5.206776 3.471862-8.678638 8.678638-8.678639h555.390141c5.206776 0 8.678638 3.471862 8.678638 8.678639-0.002034 5.206776-3.471862 8.678638-8.678638 8.678638zM876.473318 260.338811H494.64374c-5.206776 0-8.678638-3.471862-8.678638-8.678639 0-5.206776 3.471862-8.678638 8.678638-8.678638h381.829578c5.206776 0 8.678638 3.471862 8.678638 8.678638 0 5.206776-3.471862 8.678638-8.678638 8.678639z m-451.252583 0H182.237167c-5.206776 0-8.678638-3.471862-8.678638-8.678639 0-5.206776 3.471862-8.678638 8.678638-8.678638h242.983568c5.206776 0 8.678638 3.471862 8.678639 8.678638-0.002034 5.206776-3.471862 8.678638-8.678639 8.678639zM807.050313 156.203286H355.795697c-5.206776 0-8.678638-3.471862-8.678639-8.678638 0-5.206776 3.471862-8.678638 8.678639-8.678638H807.050313c5.206776 0 8.678638 3.471862 8.678638 8.678638 0 5.206776-3.471862 8.678638-8.678638 8.678638z" fill="#51565F" p-id="5676"></path></svg>