<?xml version="1.0" standalone="no"?><!DOCTYPE svg PUBLIC "-//W3C//DTD SVG 1.1//EN" "http://www.w3.org/Graphics/SVG/1.1/DTD/svg11.dtd"><svg t="1499741043767" class="icon" style="" viewBox="0 0 1024 1024" version="1.1" xmlns="http://www.w3.org/2000/svg" p-id="6816" xmlns:xlink="http://www.w3.org/1999/xlink" width="48" height="48"><defs><style type="text/css"></style></defs><path d="M557.914721 939.965482h-5.19797c-24.257868 3.46599-48.513706 5.19797-76.237563 5.19797-121.285279 0-225.24467-34.653807-225.24467-34.653807 0-69.305584-69.305584-69.305584-69.305584-69.305584H129.949239c-67.573604 0-121.285279-53.711675-121.28528-121.285279 0-57.177665 39.851777-103.959391 91.831472-117.82132C86.633503 574.375635 77.969543 544.921827 77.969543 512a190.04467 190.04467 0 0 1 190.592894-190.592893c38.117766 0 72.771574 10.395939 103.95939 31.187817 36.385787-98.761421 131.681218-169.801015 242.572589-169.801015 143.811168 0 259.898477 116.08731 259.898477 259.898477 0 8.663959 0 15.593909-1.731979 24.257868 79.701523 22.523858 140.345178 95.295431 140.345177 183.660914a190.04467 190.04467 0 0 1-190.592893 190.592893h-51.979695s-69.305584 0-69.305584 69.305584c-0.00203 0.00203-60.645685 20.793909-143.813198 29.455837" fill="#ECF4F7" p-id="6817"></path><path d="M467.817259 229.577665c-5.19797 3.46599-10.395939 8.663959-15.593909 12.127919-3.46599 3.46599-6.929949 5.19797-10.395939 8.663959-10.395939 10.395939-22.523858 20.791878-31.187817 32.919797-3.46599 5.19797-8.663959 10.395939-12.127919 15.593909s-6.929949 8.663959-8.663959 13.861929c-6.929949 12.127919-13.861929 25.989848-19.059899 38.117766-29.455838-19.059898-65.841624-31.187817-103.959391-31.187817h-15.593908c-6.929949 0-12.127919 1.73198-17.325889 1.73198-5.19797 0-10.395939 1.73198-15.593908 3.465989-25.989848 6.929949-48.513706 17.325888-69.305584 32.919797-3.46599-12.127919-5.19797-25.989848-5.197969-39.851776 0-95.295431 77.969543-173.264975 173.264974-173.264975 65.841624 3.46599 119.553299 36.385787 150.741117 84.901523" fill="#FFE079" p-id="6818"></path><path d="M514.598985 1023.132995c-1.73198 0-3.46599 0-3.46599-1.73198-3.46599-1.73198-5.19797-6.929949-3.46599-12.127919l31.187817-57.177665h-62.375634c-5.19797 0-8.663959-3.46599-8.66396-8.663959 0-5.19797 3.46599-8.663959 8.66396-8.663959h62.375634l-31.187817-57.177665c-1.73198-3.46599-1.73198-8.663959 3.46599-12.127919 3.46599-1.73198 8.663959 0 12.127919 3.46599l31.187817 55.445685 31.187817-55.445685c1.73198-3.46599 6.929949-5.19797 12.127919-3.46599 3.46599 1.73198 5.19797 6.929949 3.46599 12.127919l-31.187817 57.177665h62.375634c5.19797 0 8.663959 3.46599 8.66396 8.663959 0 5.19797-3.46599 8.663959-8.66396 8.663959h-62.375634l31.187817 57.177665c1.73198 3.46599 0 8.663959-3.46599 12.127919-3.46599 1.73198-8.663959 1.73198-12.127919-3.46599l-31.187817-55.445685-31.187817 55.445685c-1.73198 3.46599-5.195939 5.19797-8.661929 5.19797zM251.234518 953.827411c-5.19797 0-8.663959-3.46599-8.66396-8.663959v-34.653807c0-58.909645-58.909645-60.643655-60.643654-60.643655H129.949239c-71.039594 0-129.949239-58.909645-129.949239-129.949239s58.909645-129.949239 129.949239-129.949238c5.19797 0 8.663959 3.46599 8.663959 8.663959 0 5.19797-3.46599 8.663959-8.663959 8.663959-62.375635 0-112.62335 50.247716-112.623351 112.623351S67.573604 832.542132 129.949239 832.542132h51.979695c27.721827 0 77.969543 15.593909 77.969543 77.969543v34.653807c0 5.195939-3.46599 8.661929-8.663959 8.661929zM701.725888 919.173604c-5.19797 0-8.663959-3.46599-8.663959-8.663959 0-62.375635 50.247716-77.969543 77.969543-77.969543h51.979696c100.493401 0 181.928934-81.435533 181.928934-181.928934 0-58.909645-29.455838-114.35533-76.237564-149.009138-3.46599-3.46599-5.19797-8.663959-1.73198-12.127918s8.663959-5.19797 12.127919-1.73198c53.711675 38.117766 84.899492 98.761421 84.899493 162.869036 0 109.15736-90.097462 199.254822-199.254823 199.254822h-51.979695c-1.73198 0-60.643655 1.73198-60.643655 60.643655-1.729949 5.2-5.195939 8.663959-10.393909 8.663959z m-360.391878-34.651777c-1.73198 0-3.46599 0-3.46599-1.731979-3.46599-1.73198-5.19797-6.929949-3.46599-12.127919l31.187818-57.177665h-62.375635c-5.19797 0-8.663959-3.46599-8.663959-8.663959s3.46599-8.663959 8.663959-8.66396h62.375635l-31.187818-57.177665c-1.73198-3.46599-1.73198-8.663959 3.46599-12.127919 3.46599-1.73198 8.663959-1.73198 12.127919 3.46599l31.187817 55.445686 31.187818-55.445686c1.73198-3.46599 6.929949-5.19797 12.127918-3.46599 3.46599 1.73198 5.19797 6.929949 3.46599 12.127919l-31.187817 57.177665h62.375634c5.19797 0 8.663959 3.46599 8.66396 8.66396s-3.46599 8.663959-8.66396 8.663959h-62.375634l31.187817 57.177665c1.73198 3.46599 1.73198 8.663959-3.46599 12.127919-3.46599 1.73198-8.663959 0-12.127918-3.46599l-31.187818-55.445685-31.187817 55.445685c-1.73198 3.463959-5.19797 5.19797-8.661929 5.197969z m-259.898477-329.206091c-3.46599 0-6.929949-3.46599-8.663959-6.929949-1.73198-12.127919-3.46599-24.257868-3.46599-36.385787 0-109.15736 90.097462-199.254822 199.254822-199.254822 55.445685 0 105.691371 22.523858 143.811168 62.375634 3.46599 3.46599 3.46599 8.663959 0 12.127919-3.46599 3.46599-8.663959 3.46599-12.127919 0-34.653807-36.385787-81.435533-57.177665-131.681218-57.177665-100.493401 0-181.928934 81.435533-181.928934 181.928934 0 10.395939 1.73198 22.523858 3.465989 32.919797-0.00203 5.19797-3.46599 10.395939-8.663959 10.395939z m784.893401-34.651777h-1.73198c-5.19797-1.73198-6.929949-5.19797-5.197969-10.395939 5.19797-20.791878 8.663959-43.315736 8.663959-67.573604 0-138.613198-112.62335-251.234518-251.234518-251.234518-83.167513 0-161.137056 41.583756-207.918781 110.889341-3.46599 3.46599-8.663959 5.19797-12.127919 1.731979-3.46599-3.46599-5.19797-8.663959-1.73198-12.127919 50.247716-74.503553 133.415228-119.553299 223.512691-119.553299 147.275127 0 268.562437 121.285279 268.562436 268.562437 0 24.257868-3.46599 48.513706-10.395939 71.039593-3.470051 6.927919-6.936041 8.661929-10.4 8.661929zM152.473096 486.010152h-1.731979c-5.19797-1.73198-6.929949-6.929949-5.19797-10.395939 8.663959-27.721827 25.989848-51.979695 50.247716-69.305584 3.46599-3.46599 8.663959-1.73198 12.127919 1.73198 3.46599 3.46599 1.73198 8.663959-1.73198 12.127919-20.791878 13.861929-36.385787 36.385787-43.315736 60.643655-3.46599 3.46599-6.93198 5.19797-10.39797 5.197969zM805.685279 451.356345c-5.19797 0-8.663959-3.46599-8.663959-8.663959 0-34.653807-10.395939-69.305584-29.455838-98.761422-3.46599-3.46599-1.73198-8.663959 1.73198-12.127918 3.46599-1.73198 8.663959-1.73198 12.127919 1.731979 20.791878 32.919797 32.919797 69.305584 32.919797 109.157361 0.004061 5.2-3.461929 8.663959-8.659899 8.663959zM77.969543 330.071066H8.663959c-5.19797 0-8.663959-3.46599-8.663959-8.663959s3.46599-8.663959 8.663959-8.66396H77.969543c5.19797 0 8.663959 3.46599 8.66396 8.66396s-3.46599 8.663959-8.66396 8.663959z m72.771574-34.653807h-1.73198c-5.19797-1.73198-6.929949-5.19797-6.929949-10.395939 17.325888-84.899492 91.831472-145.543147 178.462944-145.543147 39.851777 0 77.969543 12.127919 109.15736 36.385786 3.46599 3.46599 5.19797 8.663959 1.73198 12.127919-3.46599 3.46599-8.663959 5.19797-12.127919 1.73198C389.847716 168.93401 356.927919 156.806091 320.542132 156.806091c-77.969543 0-145.543147 55.445685-161.137056 131.681219-1.73401 3.46599-5.19797 6.929949-8.663959 6.929949zM97.029442 236.507614H93.563452l-31.187817-13.861929c-5.19797-1.73198-6.929949-6.929949-5.19797-12.127919 1.73198-5.19797 6.929949-6.929949 12.127919-5.197969l31.187817 13.861929c5.19797 1.73198 6.929949 6.929949 5.19797 12.127919-3.463959 3.46599-5.19797 5.19797-8.661929 5.197969z m395.045685-77.969543c-1.73198 0-5.19797 0-6.929949-1.73198-3.46599-3.46599-3.46599-8.663959 0-12.127918l48.513705-48.513706c3.46599-3.46599 8.663959-3.46599 12.127919 0s3.46599 8.663959 0 12.127919l-48.513706 48.513705c0 1.73198-3.46599 1.73198-5.197969 1.73198z m-343.06599 0c-1.73198 0-5.19797 0-6.929949-1.73198L93.563452 108.290355c-3.46599-3.46599-3.46599-8.663959 0-12.127918s8.663959-3.46599 12.127919 0l48.513705 48.513705c3.46599 3.46599 3.46599 8.663959 0 12.127919 0.00203 1.73401-3.463959 1.73401-5.195939 1.73401z m77.969543-51.979695c-3.46599 0-6.929949-1.73198-8.663959-5.19797l-13.861929-31.187817c-1.73198-5.19797 0-8.663959 5.197969-12.127919 5.19797-1.73198 8.663959 0 12.127919 5.19797l13.861929 31.187817c1.73198 5.19797 0 8.663959-5.197969 12.127919h-3.46396z m187.126904 0h-3.46599c-5.19797-1.73198-6.929949-6.929949-5.19797-12.127919l13.861929-31.187817c1.73198-5.19797 6.929949-6.929949 12.127919-5.19797 5.19797 1.73198 6.929949 6.929949 5.19797 12.127919l-13.861929 31.187817c-3.463959 1.73198-5.19797 5.19797-8.661929 5.19797z m-93.563452-19.059899c-5.19797 0-8.663959-3.46599-8.663959-8.663959V9.528934c0-5.19797 3.46599-8.663959 8.663959-8.663959 5.19797 0 8.663959 3.46599 8.663959 8.663959v69.305584c-0.00203 5.2-3.46599 8.663959-8.663959 8.663959z" fill="#51565F" p-id="6819"></path></svg>