<?xml version="1.0" standalone="no"?><!DOCTYPE svg PUBLIC "-//W3C//DTD SVG 1.1//EN" "http://www.w3.org/Graphics/SVG/1.1/DTD/svg11.dtd"><svg t="1499741035218" class="icon" style="" viewBox="0 0 1024 1024" version="1.1" xmlns="http://www.w3.org/2000/svg" p-id="6532" xmlns:xlink="http://www.w3.org/1999/xlink" width="48" height="48"><defs><style type="text/css"></style></defs><path d="M873.258883 467.817259c79.701523 22.523858 140.345178 95.295431 140.345178 183.660914a190.04467 190.04467 0 0 1-190.592893 190.592893H129.949239c-67.573604 0-121.285279-53.711675-121.28528-121.285279 0-57.177665 39.851777-103.959391 91.831472-117.82132C86.633503 575.24264 77.969543 545.786802 77.969543 512.867005a190.04467 190.04467 0 0 1 190.592894-190.592893c38.117766 0 72.771574 10.395939 103.95939 31.187817 36.385787-98.761421 131.681218-169.801015 242.572589-169.801015 143.811168 0 259.898477 116.08731 259.898477 259.898477-0.00203 8.663959-0.00203 15.593909-1.73401 24.257868" fill="#80D6FA" p-id="6533"></path><path d="M823.011168 850.735025H129.949239c-71.039594 0-129.949239-58.909645-129.949239-129.949238s58.909645-129.949239 129.949239-129.949239c5.19797 0 8.663959 3.46599 8.663959 8.66396 0 5.19797-3.46599 8.663959-8.663959 8.663959-62.375635 0-112.62335 50.247716-112.623351 112.62335S67.573604 833.407107 129.949239 833.407107h693.061929c100.493401 0 181.928934-81.435533 181.928934-181.928934 0-58.909645-29.455838-114.35533-76.237564-149.009137-3.46599-3.46599-5.19797-8.663959-1.73198-12.127919s8.663959-5.19797 12.127919-1.73198c51.979695 38.117766 84.899492 98.761421 84.899493 162.869036-1.729949 109.15736-91.829442 199.256853-200.986802 199.256852zM81.435533 556.182741c-3.46599 0-6.929949-3.46599-8.663959-6.929949-1.73198-12.127919-3.46599-24.257868-3.46599-36.385787 0-109.15736 90.097462-199.254822 199.254822-199.254822 55.445685 0 105.691371 22.523858 143.811168 62.375634 3.46599 3.46599 3.46599 8.663959 0 12.127919-3.46599 3.46599-8.663959 3.46599-12.127919 0-34.653807-36.385787-81.435533-57.177665-131.681218-57.177665-100.493401 0-181.928934 81.435533-181.928934 181.928934 0 10.395939 1.73198 22.523858 3.465989 32.919797-0.00203 5.19797-3.46599 8.663959-8.663959 10.395939z m784.893401-34.653807h-1.73198c-5.19797-1.73198-6.929949-5.19797-5.197969-10.395939 5.19797-22.523858 8.663959-45.049746 8.663959-67.573604 0-138.613198-112.62335-251.234518-251.234518-251.234518-83.167513 0-161.137056 41.583756-207.918781 110.88934-3.46599 3.46599-8.663959 5.19797-12.127919 1.73198-3.46599-3.46599-5.19797-8.663959-1.73198-12.127919 50.247716-74.503553 133.415228-119.553299 223.512691-119.553299 147.275127 0 268.562437 121.285279 268.562436 268.562436 0 24.257868-3.46599 48.513706-10.395939 71.039594-3.470051 6.929949-6.936041 8.661929-10.4 8.661929zM152.473096 486.877157h-1.731979c-5.19797-1.73198-6.929949-6.929949-5.19797-10.395939 8.663959-27.721827 25.989848-51.979695 50.247716-69.305583 3.46599-3.46599 8.663959-1.73198 12.127919 1.731979 3.46599 3.46599 1.73198 8.663959-1.73198 12.127919-20.791878 13.861929-36.385787 36.385787-43.315736 60.643655-3.46599 3.463959-6.93198 5.19797-10.39797 5.197969zM805.685279 452.22335c-5.19797 0-8.663959-3.46599-8.663959-8.663959 0-34.653807-10.395939-69.305584-29.455838-98.761421-3.46599-3.46599-1.73198-8.663959 1.73198-12.127919 3.46599-3.46599 8.663959-1.73198 12.127919 1.731979 20.791878 32.919797 32.919797 69.305584 32.919797 109.157361 0.004061 5.19797-3.461929 8.663959-8.659899 8.663959z" fill="#51565F" p-id="6534"></path></svg>